<?xml version="1.0" encoding="UTF-8" standalone="no"?>
<svg
   xmlns:svg="http://www.w3.org/2000/svg"
   xmlns="http://www.w3.org/2000/svg"
   xmlns:xlink="http://www.w3.org/1999/xlink"
   version="1.0"
   width="420"
   height="580"
   id="Optimist dinghy">
  <path
     d="M 352.23809,484.55603 C 352.23809,484.55603 361.38794,503.72643 370.7043,521.6058 C 378.35991,536.29796 384.23381,535.97293 408.18234,525.96889 C 414.07119,525.12852 409.29816,516.53231 409.29816,516.53231 C 397.89028,492.7202 371.35464,435.93433 371.35464,435.93433 C 367.6166,429.06017 352.20168,436.02441 352.20168,436.02441 L 352.23809,484.55603 z "
     style="fill:white;fill-opacity:1;stroke:black;stroke-width:1.25;stroke-linecap:butt"
     id="rudder:blade" />
  <path
     d="M 359.5171,437.82277 C 359.5171,437.82277 297.71107,437.45291 297.71107,437.45291 C 296.18523,437.32575 296.76111,441.06518 299.04986,441.19233 L 359.38995,441.44664 C 361.42439,441.44664 361.17009,438.20423 359.5171,437.82277 z "
     style="fill:white;stroke:black;stroke-width:1.25;stroke-linecap:butt"
     id="rudder:tiller" />
  <path
     d="M 345.6609,399.25218 L 58.07304,395.12982 L 62.57699,140.47846 C 62.57699,140.47846 206.31901,14.1677 206.31901,14.1677 C 234.61281,55.96857 286.82813,131.27972 289.91375,136.43102 C 295.20004,146.16452 328.51941,304.98486 345.6609,399.25218 z "
     style="fill:white;fill-opacity:1;stroke:black;stroke-width:1;stroke-linecap:butt"
     id="sail" />
  <path
     d="M 51.83476,444.26182 C 51.19965,419.64393 54.89859,169.89628 57.49594,137.14276 C 57.49594,137.14276 63.09544,136.74226 63.09544,136.74226 C 62.50059,171.09778 57.43152,419.80529 58.46713,444.82368"
     style="fill:white;fill-opacity:1;stroke:black;stroke-width:1.25;stroke-linecap:butt"
     id="mast" />
  <path
     d="M 57.92088,394.60559 C 57.92088,394.60559 350.45849,399.89778 350.45849,399.89778 C 353.28941,400.46944 353.43022,404.88154 349.79394,404.93705 C 349.79394,404.93705 58.26795,399.66297 58.26795,399.66297 C 54.66594,399.54036 55.08975,394.63373 57.92088,394.60559 z "
     style="fill:white;stroke:black;stroke-width:1.25;stroke-linecap:butt"
     id="boom" />
  <path
     d="M 46.7147,316.31931 C 46.7147,316.31931 211.08782,13.11892 211.08782,13.11892 C 211.80892,11.31061 206.80741,9.32019 205.82653,11.09985 C 205.82653,11.09985 42.29216,313.00355 42.29216,313.00355 C 41.40095,314.37717 44.39608,317.84536 46.7147,316.31931 z "
     style="fill:white;stroke:black;stroke-width:1.25;stroke-linecap:butt"
     id="sprit" />
  <path
     d="M 94.02918,400.49115 L 58.54909,428.2212"
     style="fill:none;stroke:black;stroke-width:1.25;stroke-linecap:butt"
     id="kick" />
  <path
     d="M 167.36948,401.59971 L 204.5939,409.85837 L 247.00321,403.094 M 201.68298,421.10692 L 201.59433,445.80852 M 206.91535,421.10692 L 206.8267,445.80852 M 204.5939,409.17695 L 204.5939,418.03555"
     style="fill:none;stroke:black;stroke-width:1.25;stroke-linecap:butt"
     id="sheet:lines" />
  <path
     d="M 207.78408,421.10221 C 207.78408,423.05219 206.20331,424.63295 204.25334,424.63295 C 202.30337,424.63295 200.7226,423.05219 200.7226,421.10221 C 200.7226,419.15223 202.30337,417.57147 204.25334,417.57147 C 206.20331,417.57147 207.78408,419.15223 207.78408,421.10221 z "
     style="fill:white;stroke:black;stroke-width:0.99641502;stroke-linecap:round"
     id="sheet:block" />
  <path
     d="M 197.01672,504.27142 L 197.01672,567.03636 C 197.01672,569.19115 196.39424,569.5953 194.12721,569.5953 L 153.73072,569.5953 C 151.46369,569.5953 150.84121,569.19115 150.84121,567.03636 L 150.84121,503.07465"
     style="fill:white;fill-opacity:1;stroke:black;stroke-width:1.25;stroke-linecap:round"
     id="daggerboard" />
  <path
     d="M 8.87617,441.91064 L 31.72333,487.61425 C 137.70058,511.14993 265.14879,506.77117 351.85754,491.44554 C 351.85754,443.55285 351.85754,443.55285 351.85754,443.55285 C 321.43151,446.21296 120.28165,448.35112 8.87617,441.91064 z "
     style="fill:white;fill-opacity:1;stroke:black;stroke-width:1.25;stroke-linecap:butt"
     id="hull" />
  <path
     d="M 290.75918,138.89902 L 291.52094,140.96799 C 291.69602,141.44352 291.65472,141.89342 291.42838,141.97676 L 227.46512,165.527 C 227.23875,165.61034 226.91558,165.29461 226.7405,164.81909 L 225.97874,162.75013 C 225.80366,162.2746 225.84496,161.8247 226.0713,161.74136 L 290.03456,138.19112 C 290.26093,138.10778 290.5841,138.42351 290.75918,138.89902 z "
     style="fill:none;stroke:black;stroke-width:1.25;stroke-linecap:round"
     id="batten" />
  <use
     transform="matrix(0.997621,6.893113e-2,-6.893113e-2,0.997621,40.09557,113.4992)"
     id="batten-link"
     x="0"
     y="0"
     width="744.09448"
     height="1052.3622"
     xlink:href="#batten" />
  <path
     d="M 216.25033,83.18028 C 205.86194,83.18028 197.40658,91.6669 197.40658,102.05528 C 197.40657,112.44366 205.86195,120.89903 216.25033,120.89903 C 218.16532,120.89903 219.97458,120.52657 221.71908,119.99278 C 227.02283,132.24183 226.25034,133.18029 226.25033,133.18028 L 232.59408,130.33653 C 232.59408,130.33653 231.61476,130.74054 225.81283,118.21153 C 231.35441,114.92419 235.12533,108.94257 235.12533,102.05528 C 235.12533,91.6669 226.63871,83.18028 216.25033,83.18028 z M 216.25033,87.49278 C 224.30134,87.49279 230.81283,94.00427 230.81283,102.05528 C 230.81282,107.24253 228.10787,111.76649 224.03158,114.33653 C 217.55113,99.69696 218.78159,99.55528 218.78158,99.55528 L 212.46908,102.39903 C 212.46908,102.39903 213.66966,102.13328 220.00033,116.05528 C 218.7984,116.37432 217.55412,116.58653 216.25033,116.58653 C 208.19931,116.58652 201.75033,110.10629 201.75033,102.05528 C 201.75032,94.00427 208.19932,87.49278 216.25033,87.49278 z "
     style="fill:black;fill-opacity:1;fill-rule:nonzero;stroke:none"
     id="logotype" />
</svg>
