<?xml version="1.0" encoding="utf-8"?>
<!-- Generator: Adobe Illustrator 21.1.0, SVG Export Plug-In . SVG Version: 6.00 Build 0)  -->
<svg version="1.1" xmlns="http://www.w3.org/2000/svg" xmlns:xlink="http://www.w3.org/1999/xlink" x="0px" y="0px"
	 viewBox="0 0 512 512" style="enable-background:new 0 0 512 512;" xml:space="preserve">
<style type="text/css">
	.st0{fill:#333333;}
	.st1{fill:#FDFEFF;}
	.st2{fill:#E1AE25;}
</style>
<g id="Layer_1">
	<circle class="st0" cx="256" cy="256" r="256"/>
</g>
<g id="Layer_2">
	<path class="st0" d="M440.1,214.6c-0.8,2.2-1.5,4.4-2.3,6.5C438.6,218.9,439.3,216.8,440.1,214.6z"/>
	<path class="st1" d="M317.7,292.8c2.2,0.1,4.4,0.2,6.6,0.3c0.5,0,0.8-0.2,0.7-0.8c-0.1-0.5-0.2-1.1-0.4-1.6
		c-1.5-6-2.9-12.1-4.4-18.1c-7.2-28.4-14.4-56.9-21.6-85.3c-1.2-4.8-2.5-9.6-3.9-14.4c-2.4-7.6-7.2-13.3-13.8-17.6
		c-2.9-1.9-6-3.5-9.1-5c-10.3-5.1-21-8.9-32-12c-13.6-3.9-27.4-6.7-41.3-9.1c-11.2-1.9-22.3-4-33.6-5.6c-5.7-0.8-11.5-1.6-17.3-2.3
		c-7.3-0.9-14.7-1.7-22.1-2.2c-5.2-0.4-10.5-0.9-15.7-1.3c-1-0.1-2-0.4-3.1-0.2c1.5,5.8,2.9,11.7,4.4,17.5
		c4.6,17.6,9.1,35.2,13.7,52.8c3.8,14.7,7.7,29.4,11.6,44.1c4.3,16.4,8.6,32.8,12.9,49.2c3.9,14.9,7.8,29.7,11.6,44.6
		c2.9,11.2,5.8,22.5,8.7,33.7c0.1,0.5,0.3,0.9,0.4,1.4c0.6-0.4,1.3-0.9,1.9-1.3c10-7.8,20.2-15.3,30.6-22.5
		c15.8-10.8,32.3-20.4,49.8-28.2c11.3-5.1,22.9-9.4,35-12.4c6.1-1.5,12.3-2.6,18.6-3.2C309.9,292.8,313.8,292.7,317.7,292.8z
		 M305,233.2c-0.3-0.1-0.5-0.2-0.8-0.3c-3.5-1.3-7.1-2.4-10.7-3.3c-0.9-0.2-1.4-0.6-1.8-1.5c-0.7-1.8-1.5-3.6-2.2-5.4
		c-0.3-0.7-0.7-1-1.4-1.1c-2.8-0.5-5.6-1.1-8.4-1.5c-1.9-0.3-3.8-0.6-5.8-0.8c-0.9-0.1-1.8-0.3-2.7,0c0.5,2,1,4,1.6,6
		c2,7.4,3.9,14.8,5.9,22.3c0.1,0.5,0.3,0.9,0.4,1.4c0.1,0.5,0.5,0.8,1,0.9c2,0.3,4,0.6,6,0.8c0.3,0,0.5,0.1,0.8,0.1
		c0.7,0.1,1.1,0.5,1.3,1.2c0.3,1.4,0.7,2.8,1.1,4.2c0.8,3.1,1.6,6.3,2.4,9.4c0.1,0.4,0.2,0.8,0.2,1.2c0,0.3-0.2,0.5-0.5,0.5
		c-0.3,0-0.7,0-1-0.1c-4.4-0.8-8.9-1.3-13.4-1.7c-6.7-0.5-13.4-0.8-20.1-0.6c-1,0-1.9,0.1-2.9,0.1c-0.8,0-0.9-0.1-1.2-0.9
		c-1.1-3.8-2.2-7.6-3.3-11.4c-0.2-0.8-0.5-1.6-0.7-2.4c-0.3-1.1-0.2-1.3,1.1-1.3c1.4,0,2.8,0,4.2-0.1c1.2-0.1,2.5,0.3,3.6-0.3
		c0.1-1.2-0.5-2.3-0.8-3.4c-2.3-8.3-4.7-16.7-7-25c0-0.1,0-0.1,0-0.2c-0.6-1.9-0.1-1.9-2.5-1.8c-3.4,0.1-3.2-0.3-2.3,3
		c2.2,7.6,4.3,15.2,6.5,22.8c0.1,0.4,0.2,0.8,0.3,1.2c0.1,0.5-0.1,0.7-0.6,0.8c-0.2,0-0.4,0-0.6,0c-3.8,0.2-7.6,0.4-11.4,0.6
		c-1.1,0.1-2.2,0.2-3.3,0.3c-1.3,0.1-1.3-0.1-1.5-0.9c-0.1-0.3-0.2-0.6-0.4-1c-0.9,0-1.5,0.5-2.1,0.9c-6.4,3.5-13.1,6.2-20.1,8.3
		c-6.9,2-13.9,3.1-21.1,3c-7.3-0.1-14.5-1.4-21.2-4.4c-6.7-3-12.3-7.4-16.5-13.6c-3.8-5.6-5.7-11.8-5.8-18.6
		c-0.1-6.2,1.3-12.1,4.1-17.6c2.8-5.6,6.3-10.8,10.8-15.2c6.4-6.2,13.9-9.9,22.7-11.2c4.7-0.7,9.4-0.6,14.1-0.1
		c4.9,0.6,9.7,1.6,14.4,3.1c0.2,0.1,0.5,0.1,0.7,0.2c0.3-0.4,0.1-0.7,0-1c-0.4-1.5-0.9-2.9-1.3-4.4c-0.1-0.5-0.4-1-0.3-1.7
		c0.8-0.3,1.7-0.3,2.6-0.4c4.1-0.4,8.3-0.7,12.4-1.1c0.5,0,1,0,1.5,0c0.4,0,0.7,0.2,0.8,0.5c0.1,0.3,0.2,0.5,0.3,0.8
		c2.3,8.1,4.6,16.1,6.8,24.2c0,0.1,0.1,0.3,0.1,0.4c0.2,0.9,0.1,1.2-0.8,1.2c-1.7,0.1-3.3,0.2-5,0.3c-3,0.2-6.1,0.5-9.1,0.8
		c-0.8,0.1-1.5-0.1-2.2-0.5c-3.1-1.7-6.3-3.1-9.7-4.2c-4.8-1.5-9.7-2.3-14.7-1.9c-11.8,0.9-20.1,8.6-23,17.6
		c-3,9.5,1.1,20.6,10.5,25.5c3.4,1.8,7.1,2.8,10.8,3.4c6.7,1.1,13.2,0.3,19.7-1.6c2.8-0.8,5.4-2.1,7.8-3.8c4.1-3,6.6-7,7.3-12.1
		c0-0.2,0-0.4,0.1-0.6c0.1-1.4,0-1.7-1.6-1.5c-2.5,0.4-2.4-0.2-2.2,2.6c0.1,1.2,0.2,2.3,0.3,3.5c0.1,0.8-0.1,1-0.9,1.1
		c-1.1,0.1-2.2,0.2-3.3,0.4c-3.2,0.4-6.3,0.8-9.5,1.2c-0.8,0.1-1,0-1.2-0.8c-1.4-4.6-2.8-9.3-4.2-13.9c-0.7-2.5-1.5-5-2.2-7.6
		c-0.1-0.5-0.3-0.9-0.3-1.4c0-0.3,0.2-0.6,0.4-0.6c0.9-0.2,1.8-0.3,2.7-0.4c6.7-0.9,13.4-1.7,20.2-2.3c8.8-0.7,17.7-1.2,26.6-1
		c10.4,0.2,20.7,1.1,30.9,3.2c4.5,1,8.9,2.2,13.2,3.7c1.1,0.4,1.7,0.9,2,2.1c1.9,7.5,3.8,15,5.7,22.5c0.1,0.2,0.1,0.4,0.1,0.6
		C305.8,233.2,305.5,233.4,305,233.2z"/>
	<path class="st1" d="M348.9,260.5c7.5-16.7,14.8-33.5,22.1-50.4c0.7-1.7,1.5-3.4,2.2-5.1c-0.2-0.1-0.4-0.2-0.6-0.2
		c-8.4-1.2-16.8-2.7-25.2-4.2c-11.8-2.1-23.5-4.5-35.1-7.3c-3.4-0.8-6.7-1.6-10.1-2.5c-0.6-0.2-0.9,0.1-0.7,0.7
		c0.1,0.3,0.2,0.7,0.3,1c2.2,8.6,4.4,17.3,6.6,25.9c6,23.7,12,47.3,18,71c0.4,1.7,0.8,3.5,1.3,5.2c0.4,1.4,0,2.6-1,3.6
		c-0.9,0.9-1.8,1.7-2.9,2.4c-1.5,1-3.1,1.8-4.7,2.6c-3.2,1.5-6.5,2.8-9.7,4.1c-1.6,0.7-3.2,1.4-4.7,2.1c-1.4,0.7-2.7,1.7-3.8,2.9
		c-0.8,0.9-1.2,1.8-1.3,3c-0.2,2.8,2.1,6.6,4.7,7.7c0.6,0.2,1.2,0.4,1.8,0.4c1.1,0.1,2.2,0.1,3.3,0c4-0.5,7.7-2,11.3-3.9
		c0.2-0.4,0.3-0.8,0.5-1.1C331.1,299.4,340.2,280.1,348.9,260.5z"/>
	<path class="st2" d="M173.6,485.6c-7.9-31.2-15.7-62.4-23.6-93.6c-5-19.9-10.1-39.9-15.1-59.8c-9.1-36.2-18.3-72.5-27.4-108.7
		c-9.4-37.2-18.7-74.4-28.1-111.5c-0.6-2.5-0.7-2.2,0.9-3.8c0.4-0.4,0.7-1,1-1.6c0.2-0.4,0.2-0.8,0.2-0.9c0.1-1-0.2-1.5-0.6-2
		c-0.6-0.7-1.5-1.1-2.4-1.2c-4.9-0.6-9.2,0.8-12.9,4c-0.6,0.5-1.2,1.2-1.6,1.9c-0.3,0.5-0.4,1-0.5,1.6c-0.1,1,0.3,1.7,1.1,2.3
		c0.7,0.4,1.4,0.7,2.1,0.8c1.3,0.1,1.8,0.8,2,2c0,0.3,0.2,0.5,0.2,0.8c3.2,12.3,6.4,24.5,9.6,36.8c7,26.7,14,53.4,21,80.1
		c6.5,25,13.1,49.9,19.6,74.9c8.2,31.5,16.5,62.9,24.7,94.4c8.1,31.1,16.3,62.1,24.4,93.2c0.2,0.6,0.3,1.2,0.5,1.8
		c2.6,1,5.3,1.9,8,2.7c-0.3-1.1-0.7-3-0.8-3.4C175.4,492.7,174.5,489.1,173.6,485.6z"/>
	<path class="st1" d="M142.6,298c-5.7-22.2-11.5-44.5-17.2-66.7c-4.9-19-9.8-37.9-14.7-56.9c-4.8-18.8-9.6-37.5-14.4-56.3
		c-0.1-0.5-0.2-0.9-0.3-1.4c-4.5-0.6-9.1-0.9-11.2-0.7c0,0.2-0.1,0.4,0,0.6c22,86.6,44.1,173.1,66.2,259.8c0.4-0.2,0.7-0.3,0.9-0.4
		c3-2.4,5.9-4.8,8.9-7.2c0.1-0.1,0.2-0.2,0.2-0.3c-0.5-0.9-0.6-2-0.9-3C154.1,342.9,148.4,320.4,142.6,298z"/>
	<path class="st2" d="M161.1,325.7c-3.9-14.9-7.7-29.7-11.6-44.6c-4.3-16.4-8.6-32.8-12.9-49.2c-3.9-14.7-7.8-29.4-11.6-44.1
		c-4.6-17.6-9.2-35.2-13.7-52.8c-1.5-5.8-3-11.7-4.4-17.5c0,0,0,0,0,0c0,0,0,0,0,0c-3.5-0.3-7-0.6-10.5-0.9c-0.1,0-0.3,0-0.4,0.1
		c0.1,0.5,0.2,0.9,0.3,1.4c4.8,18.8,9.6,37.5,14.4,56.3c4.9,19,9.8,37.9,14.7,56.9c5.8,22.2,11.5,44.5,17.2,66.7
		c5.8,22.4,11.5,44.9,17.3,67.4c0.3,1,0.4,2,0.9,3c0.4-0.1,0.7-0.4,1-0.6c1.8-1.4,3.5-2.8,5.3-4.2c1.1-0.9,2.1-1.7,3.1-2.6
		c-0.1-0.5-0.3-0.9-0.4-1.4C166.9,348.2,164,336.9,161.1,325.7z"/>
	<path class="st2" d="M111.2,135c-1.5-5.8-3-11.7-4.4-17.5c0,0,0,0,0,0C108.3,123.4,109.7,129.2,111.2,135z"/>
	<path class="st2" d="M415.7,219.5c1.5-3.7,2.9-7.5,4.3-11.2c0.2-0.6,0.4-1.3,0.7-2c-1-0.2-2.1,0-3.1,0c-6.5,0.2-12.9,0.6-19.4,0.2
		c-0.3,0-0.7,0-1,0.1c-2.6,6.2-5.1,12.4-7.8,18.6c-7.7,17.8-15.5,35.7-23.2,53.5c-2.7,6.2-5.5,12.3-8.2,18.4
		c-0.3,0.7-0.8,1.3-0.7,2.1c0,0,0,0,0,0c0,0,0,0,0,0c0.2,0.1,0.4,0.1,0.6,0c0.6-0.4,1.2-0.7,1.8-1.1c10.5-6.6,20.8-13.5,31.1-20.5
		c0.5-0.3,1-0.7,1.5-1.1c0.3-1.3,0.9-2.5,1.4-3.7C401.3,255.1,408.7,237.4,415.7,219.5z"/>
	<path class="st2" d="M340,308c2.3-4.9,4.6-9.8,6.9-14.7c6.8-14.8,13.4-29.6,19.9-44.6c5.7-13,11.3-26,16.9-39.1
		c0.5-1.2,1-2.4,1.5-3.6c-0.3-0.1-0.5-0.1-0.8-0.2c-2.7-0.2-5.5-0.5-8.2-0.7c-1-0.1-1.9-0.1-2.9-0.1c-0.7,1.7-1.5,3.4-2.2,5.1
		c-7.3,16.8-14.6,33.7-22.1,50.4c-8.8,19.5-17.9,38.9-27.7,57.9c-0.2,0.4-0.3,0.8-0.5,1.1c0.6-0.2,1.2-0.4,1.7-0.7
		c5.3-2.6,10.6-5.3,15.7-8.1c0.3-0.2,0.6-0.4,0.8-0.6c0.1-0.1,0.3-0.2,0.4-0.3C339.2,309.1,339.7,308.6,340,308z"/>
	<path class="st1" d="M357.3,299.1c-0.2-0.8,0.4-1.4,0.7-2.1c2.7-6.1,5.5-12.2,8.2-18.4c7.8-17.8,15.5-35.6,23.2-53.5
		c2.7-6.2,5.2-12.4,7.8-18.6c-1.7-0.1-3.4-0.2-5.2-0.2c-2.3,0-4.5-0.5-6.8-0.3c-0.5,1.2-1,2.4-1.5,3.6c-5.6,13-11.3,26.1-16.9,39.1
		c-6.5,14.9-13.1,29.8-19.9,44.6c-2.3,4.9-4.6,9.8-6.9,14.7c-0.3,0.6-0.8,1.1-0.5,1.9c0,0,0,0,0,0c0,0,0,0,0,0
		c0.4,0,0.6-0.2,0.9-0.3c5.3-2.9,10.4-6,15.5-9.2c0.3-0.2,0.7-0.5,1-0.7C356.9,299.3,357,299.1,357.3,299.1z"/>
	<path class="st1" d="M476.1,195.6c-0.7,0.2-1.3,0.4-2,0.6c-7,2.3-14.2,4.2-21.4,5.7c-3,0.6-6,1.2-8.9,1.8
		c-1.2,3.7-2.4,7.3-3.7,10.9c-0.8,2.2-1.5,4.4-2.3,6.5c-0.7,1.9-1.4,3.9-2.1,5.8c-2.5,6.9-5.2,13.8-7.8,20.7
		c-0.2,0.5-0.3,1.1-0.5,1.6c0.4-0.3,0.8-0.5,1.1-0.9c7.7-6.7,14.9-13.9,22-21.1c9.1-9.4,17.4-19.5,25.1-30.1
		c0.3-0.4,0.7-0.8,0.8-1.4C476.4,195.7,476.2,195.6,476.1,195.6z"/>
	<path class="st1" d="M430.2,211.3c0.7-2,1.4-4,2.1-6.1c-0.2,0-0.4,0-0.6,0c-3.1,0.4-6.3,0.7-9.4,0.8c-0.5,0-1.1,0-1.6,0.3
		c-0.2,0.7-0.4,1.3-0.7,2c-1.4,3.7-2.9,7.5-4.3,11.2c-7.1,17.9-14.4,35.6-22.1,53.2c-0.5,1.2-1.2,2.4-1.4,3.7
		c0.2-0.1,0.5-0.2,0.7-0.4c5.4-3.7,10.7-7.4,15.9-11.4c0.4-0.3,0.8-0.7,1.2-1.1c-0.1-0.9,0.4-1.6,0.7-2.3
		C417.5,244.6,424.1,228,430.2,211.3z"/>
	<path class="st2" d="M435.7,226.9c0.7-1.9,1.4-3.9,2.1-5.8c0.8-2.2,1.6-4.4,2.3-6.5c1.3-3.6,2.5-7.3,3.7-10.9c0,0,0,0,0,0
		c0,0,0,0,0,0c-3.8,0.5-7.6,1-11.4,1.6c-0.7,2-1.4,4.1-2.1,6.1c-6.1,16.8-12.7,33.4-19.5,49.9c-0.3,0.8-0.8,1.5-0.7,2.3
		c0.4-0.2,0.7-0.4,1.1-0.6c4.8-3.8,9.7-7.6,14.3-11.7c0.7-0.6,1.6-1.1,2.1-2c0.2-0.5,0.3-1.1,0.5-1.6
		C430.5,240.7,433.2,233.8,435.7,226.9z"/>
	<path class="st2" d="M440.1,214.6c1.3-3.6,2.5-7.3,3.7-10.9c0,0,0,0,0,0C442.6,207.3,441.4,211,440.1,214.6z"/>
	<path class="st1" d="M312.7,303.6c2.8-1.1,5.5-2.2,8.3-3.3c1-0.4,1.9-0.9,2.7-1.5c0.8-0.7,0.8-1.5-0.1-2.1c-1-0.7-2.1-1-3.2-1.4
		c-3.4-1-6.8-1-10.3-0.7c-4.9,0.4-9.7,1.3-14.5,2.6c-0.3,0.1-0.5,0.2-0.8,0.2c-0.3,0.1-0.4,0.4-0.4,0.7c0,0.3,0.1,0.7,0.2,1
		c0.8,3.2,1.6,6.4,2.5,9.6c0.2,0.8,0.3,1.6,0.9,2.5c1.5-1.8,3.4-2.9,5.3-3.8C306.4,306,309.6,304.8,312.7,303.6z"/>
	<path class="st2" d="M357.3,299.1c-0.3,0-0.4,0.3-0.4,0.5C357.2,299.5,357.5,299.5,357.3,299.1
		C357.3,299.1,357.3,299.1,357.3,299.1C357.3,299.1,357.3,299.1,357.3,299.1z"/>
	<path class="st2" d="M357.3,299.1C357.3,299.1,357.3,299.1,357.3,299.1C357.3,299.1,357.3,299.1,357.3,299.1
		C357.3,299.1,357.3,299.1,357.3,299.1z"/>
	<path class="st2" d="M357.3,299.1C357.3,299.1,357.3,299.1,357.3,299.1C357.3,299.1,357.3,299.1,357.3,299.1
		C357.3,299.1,357.3,299.1,357.3,299.1z"/>
	<path class="st1" d="M339.4,309.9c-0.1,0.1-0.3,0.2-0.4,0.3C339.2,310.2,339.4,310.1,339.4,309.9
		C339.5,309.9,339.4,309.9,339.4,309.9C339.4,309.9,339.4,309.9,339.4,309.9z"/>
	<path class="st1" d="M339.4,309.9C339.4,309.9,339.5,309.9,339.4,309.9C339.5,309.9,339.5,309.9,339.4,309.9
		C339.5,309.9,339.4,309.9,339.4,309.9z"/>
	<path class="st1" d="M339.5,309.9C339.5,309.9,339.4,309.9,339.5,309.9C339.4,309.9,339.4,309.9,339.5,309.9
		C339.4,309.9,339.5,309.9,339.5,309.9z"/>
	<path class="st2" d="M299.9,209.6c-0.3-1.2-0.9-1.7-2-2.1c-4.3-1.5-8.7-2.7-13.2-3.7c-10.2-2.2-20.5-3-30.9-3.2
		c-8.9-0.2-17.7,0.3-26.6,1c-6.8,0.6-13.5,1.4-20.2,2.3c-0.9,0.1-1.8,0.3-2.7,0.4c-0.3,0.1-0.5,0.3-0.4,0.6c0.1,0.5,0.2,0.9,0.3,1.4
		c0.7,2.5,1.5,5,2.2,7.6c1.4,4.6,2.8,9.3,4.2,13.9c0.2,0.8,0.4,0.9,1.2,0.8c3.2-0.4,6.3-0.8,9.5-1.2c1.1-0.1,2.2-0.2,3.3-0.4
		c0.8-0.1,1-0.3,0.9-1.1c-0.1-1.2-0.2-2.3-0.3-3.5c-0.2-2.7-0.3-2.2,2.2-2.6c1.6-0.3,1.6,0,1.6,1.5c0,0.2,0,0.4-0.1,0.6
		c-0.7,5.1-3.2,9.1-7.3,12.1c-2.4,1.7-5,3-7.8,3.8c-6.4,1.9-13,2.7-19.7,1.6c-3.8-0.6-7.4-1.7-10.8-3.4c-9.4-4.8-13.5-16-10.5-25.5
		c2.8-9,11.1-16.7,23-17.6c5-0.4,9.9,0.4,14.7,1.9c3.4,1.1,6.6,2.5,9.7,4.2c0.7,0.4,1.4,0.6,2.2,0.5c3-0.3,6.1-0.5,9.1-0.8
		c1.7-0.1,3.3-0.2,5-0.3c0.9-0.1,1-0.3,0.8-1.2c0-0.1-0.1-0.3-0.1-0.4c-2.3-8.1-4.6-16.1-6.8-24.2c-0.1-0.3-0.2-0.5-0.3-0.8
		c-0.1-0.4-0.4-0.5-0.8-0.5c-0.5,0-1,0-1.5,0c-4.1,0.3-8.3,0.7-12.4,1.1c-0.9,0.1-1.8,0.1-2.6,0.4c-0.1,0.6,0.1,1.2,0.3,1.7
		c0.4,1.5,0.9,2.9,1.3,4.4c0.1,0.3,0.3,0.7,0,1c-0.2-0.1-0.5-0.1-0.7-0.2c-4.7-1.5-9.5-2.5-14.4-3.1c-4.7-0.5-9.4-0.6-14.1,0.1
		c-8.8,1.3-16.3,5.1-22.7,11.2c-4.5,4.4-8,9.5-10.8,15.2c-2.7,5.6-4.2,11.4-4.1,17.6c0.1,6.8,2,13,5.8,18.6
		c4.1,6.1,9.8,10.5,16.5,13.6c6.7,3,13.9,4.3,21.2,4.4c7.2,0.1,14.2-1,21.1-3c7-2,13.7-4.8,20.1-8.3c0.6-0.4,1.2-0.9,2.1-0.9
		c0.1,0.4,0.3,0.7,0.4,1c0.2,0.8,0.2,1,1.5,0.9c1.1-0.1,2.2-0.2,3.3-0.3c3.8-0.2,7.6-0.4,11.4-0.6c0.2,0,0.4,0,0.6,0
		c0.6-0.1,0.8-0.3,0.6-0.8c-0.1-0.4-0.2-0.8-0.3-1.2c-2.2-7.6-4.4-15.2-6.5-22.8c-0.9-3.3-1.1-2.9,2.3-3c2.4-0.1,1.9,0,2.5,1.8
		c0,0.1,0,0.1,0,0.2c2.3,8.3,4.7,16.7,7,25c0.3,1.1,0.8,2.2,0.8,3.4c-1.2,0.6-2.4,0.2-3.6,0.3c-1.4,0.1-2.8,0-4.2,0.1
		c-1.2,0-1.4,0.2-1.1,1.3c0.2,0.8,0.5,1.6,0.7,2.4c1.1,3.8,2.2,7.6,3.3,11.4c0.2,0.8,0.4,0.9,1.2,0.9c1,0,1.9-0.1,2.9-0.1
		c6.7-0.2,13.4,0.1,20.1,0.6c4.5,0.3,9,0.9,13.4,1.7c0.3,0.1,0.7,0.1,1,0.1c0.3,0,0.5-0.2,0.5-0.5c0-0.4-0.1-0.8-0.2-1.2
		c-0.8-3.1-1.6-6.3-2.4-9.4c-0.4-1.4-0.7-2.8-1.1-4.2c-0.2-0.7-0.5-1.1-1.3-1.2c-0.3,0-0.6-0.1-0.8-0.1c-2-0.3-4-0.6-6-0.8
		c-0.5-0.1-0.9-0.3-1-0.9c-0.1-0.5-0.3-0.9-0.4-1.4c-2-7.4-3.9-14.8-5.9-22.3c-0.5-2-1-4-1.6-6c1-0.4,1.9-0.1,2.7,0
		c1.9,0.2,3.9,0.4,5.8,0.8c2.8,0.5,5.6,1,8.4,1.5c0.7,0.1,1.1,0.4,1.4,1.1c0.7,1.8,1.5,3.6,2.2,5.4c0.3,0.9,0.9,1.3,1.8,1.5
		c3.6,0.9,7.2,2,10.7,3.3c0.3,0.1,0.5,0.2,0.8,0.3c0.4,0.1,0.7-0.1,0.6-0.5c0-0.2-0.1-0.4-0.1-0.6
		C303.6,224.7,301.7,217.1,299.9,209.6z"/>
</g>
</svg>
