<?xml version="1.0" encoding="utf-8"?>
<!-- Generator: Adobe Illustrator 21.1.0, SVG Export Plug-In . SVG Version: 6.00 Build 0)  -->
<svg version="1.1" id="Layer_1" xmlns="http://www.w3.org/2000/svg" xmlns:xlink="http://www.w3.org/1999/xlink" x="0px" y="0px"
	 viewBox="0 0 1024 1024" style="enable-background:new 0 0 1024 1024;" xml:space="preserve">
<style type="text/css">
	.st0{fill:#414042;stroke:#FFFFFF;stroke-miterlimit:10;}
	.st1{fill:#FDFEFF;}
	.st2{fill:#E1AE25;}
</style>
<rect class="st0" width="1024" height="1024"/>
<g>
	<path class="st1" d="M186.1,170.5c2-0.4,3.9,0.2,5.9,0.4c10,0.8,20,1.7,30,2.5c14.1,1.1,28.2,2.6,42.2,4.2c11,1.3,22,2.8,33,4.4
		c21.5,3.1,42.8,7,64.1,10.7c26.6,4.6,53,10,78.9,17.5c21,6,41.6,13.2,61.2,23c5.9,2.9,11.8,6,17.3,9.6
		c12.5,8.3,21.8,19.1,26.3,33.7c2.8,9.1,5.2,18.3,7.5,27.5c13.8,54.3,27.6,108.7,41.3,163c2.9,11.5,5.7,23.1,8.5,34.7
		c0.3,1,0.5,2.1,0.7,3.1c0.2,1-0.3,1.5-1.3,1.5c-4.2-0.2-8.5-0.5-12.7-0.6c-7.4-0.2-14.8,0-22.2,0.7c-12,1.1-23.8,3.3-35.5,6.2
		c-23.1,5.7-45.2,14-66.8,23.7c-33.4,15-64.9,33.3-95.2,53.9c-20,13.6-39.5,28.1-58.6,43c-1.1,0.9-2.4,1.7-3.5,2.5
		c-0.3-0.9-0.6-1.8-0.8-2.7c-5.6-21.5-11.1-43-16.7-64.5c-7.4-28.4-14.8-56.8-22.2-85.2c-8.2-31.3-16.5-62.6-24.7-93.9
		c-7.4-28.1-14.8-56.2-22.2-84.4c-8.8-33.6-17.5-67.3-26.2-100.9C191.7,192.8,188.9,181.6,186.1,170.5z M500.6,365.2
		c1.9-0.7,3.6-0.3,5.3-0.1c3.7,0.4,7.4,0.8,11,1.5c5.3,0.9,10.7,2,16,2.9c1.3,0.2,2.1,0.8,2.6,2.1c1.4,3.4,2.9,6.8,4.2,10.3
		c0.6,1.7,1.7,2.5,3.4,2.9c7,1.7,13.8,3.8,20.5,6.3c0.5,0.2,1,0.4,1.5,0.5c0.8,0.3,1.4-0.2,1.2-0.9c-0.1-0.4-0.2-0.8-0.3-1.2
		c-3.6-14.4-7.3-28.7-10.8-43.1c-0.5-2.2-1.8-3.2-3.8-4c-8.3-2.9-16.7-5.2-25.2-7c-19.5-4.2-39.2-5.8-59.1-6.2
		c-16.9-0.4-33.9,0.6-50.7,2c-12.9,1.1-25.8,2.7-38.6,4.4c-1.7,0.2-3.4,0.5-5.1,0.8c-0.6,0.1-0.9,0.6-0.9,1.2
		c0.1,0.9,0.4,1.8,0.6,2.7c1.4,4.8,2.8,9.6,4.3,14.5c2.6,8.9,5.3,17.7,7.9,26.6c0.5,1.5,0.8,1.7,2.3,1.5c6-0.8,12.1-1.6,18.1-2.4
		c2.1-0.3,4.2-0.5,6.3-0.7c1.5-0.2,1.8-0.6,1.7-2.1c-0.2-2.2-0.5-4.5-0.7-6.7c-0.4-5.3-0.6-4.1,4.1-4.9c3-0.5,3.1,0.1,3,2.8
		c0,0.4-0.1,0.8-0.1,1.2c-1.3,9.7-6.1,17.4-13.9,23.2c-4.5,3.3-9.6,5.7-14.9,7.3c-12.3,3.7-24.8,5.2-37.6,3.1
		c-7.2-1.1-14.2-3.2-20.7-6.6c-18-9.2-25.8-30.5-20.2-48.7c5.4-17.2,21.3-31.9,43.9-33.6c9.6-0.7,19,0.7,28.2,3.6
		c6.5,2,12.6,4.7,18.6,7.9c1.3,0.7,2.6,1.1,4.2,0.9c5.8-0.6,11.6-1,17.4-1.5c3.2-0.3,6.3-0.4,9.5-0.6c1.7-0.1,2-0.5,1.5-2.3
		c-0.1-0.3-0.2-0.5-0.2-0.8c-4.4-15.4-8.7-30.8-13.1-46.2c-0.1-0.5-0.3-1-0.5-1.5c-0.3-0.7-0.8-1-1.5-1c-0.9,0-1.9,0-2.8,0.1
		c-7.9,0.7-15.8,1.3-23.7,2c-1.7,0.2-3.4,0.1-5,0.8c-0.2,1.2,0.2,2.2,0.5,3.2c0.8,2.8,1.6,5.6,2.5,8.4c0.2,0.6,0.5,1.2-0.1,2
		c-0.4-0.1-0.9-0.2-1.4-0.3c-9-2.9-18.1-4.9-27.5-5.9c-9-1-17.9-1.1-26.9,0.2c-16.8,2.5-31.2,9.7-43.4,21.5
		c-8.6,8.4-15.3,18.2-20.6,29c-5.2,10.6-7.9,21.8-7.7,33.7c0.2,13,3.9,24.8,11.1,35.5c7.9,11.7,18.6,20.1,31.5,25.9
		c12.9,5.8,26.5,8.3,40.5,8.4c13.7,0.2,27.1-2,40.3-5.8c13.4-3.9,26.2-9.2,38.5-15.8c1.2-0.7,2.4-1.7,4-1.7c0.3,0.7,0.6,1.3,0.7,1.9
		c0.4,1.5,0.4,2,2.9,1.8c2.1-0.2,4.2-0.5,6.3-0.6c7.3-0.4,14.5-0.7,21.8-1.1c0.4,0,0.8,0,1.2-0.1c1.1-0.1,1.5-0.6,1.2-1.5
		c-0.2-0.8-0.4-1.5-0.6-2.3c-4.2-14.5-8.3-29-12.4-43.5c-1.8-6.3-2.1-5.6,4.3-5.7c4.6-0.1,3.6-0.1,4.9,3.5c0,0.1,0.1,0.3,0.1,0.4
		c4.5,15.9,9,31.8,13.4,47.7c0.6,2.1,1.6,4.2,1.5,6.5c-2.2,1.2-4.6,0.5-6.9,0.6c-2.6,0.2-5.3,0.1-7.9,0.2c-2.4,0.1-2.6,0.4-2,2.5
		c0.4,1.5,0.9,3,1.3,4.6c2.1,7.2,4.1,14.5,6.2,21.7c0.4,1.5,0.8,1.8,2.2,1.8c1.9,0,3.7-0.2,5.5-0.2c12.8-0.4,25.7,0.1,38.5,1.1
		c8.6,0.7,17.1,1.6,25.6,3.2c0.6,0.1,1.3,0.2,2,0.2c0.6,0,1-0.3,1-0.9c-0.1-0.8-0.3-1.6-0.5-2.3c-1.5-6-3.1-12-4.7-18.1
		c-0.7-2.7-1.4-5.4-2.1-8.1c-0.3-1.3-1-2.1-2.4-2.2c-0.5,0-1.1-0.1-1.6-0.2c-3.8-0.5-7.6-1.1-11.4-1.6c-1-0.1-1.7-0.6-2-1.6
		c-0.2-0.9-0.5-1.8-0.7-2.7c-3.8-14.2-7.5-28.4-11.3-42.6C502.6,372.9,501.6,369.1,500.6,365.2z"/>
	<path class="st1" d="M595,556.6c-6.8,3.7-13.9,6.5-21.6,7.5c-2.1,0.3-4.2,0.2-6.3,0.1c-1.2-0.1-2.4-0.4-3.4-0.9
		c-5-2-9.4-9.3-9-14.7c0.2-2.2,1.1-4.1,2.5-5.7c2-2.3,4.4-4.2,7.2-5.5c3-1.4,6-2.8,9-4c6.2-2.6,12.5-5,18.6-7.9
		c3.1-1.5,6.2-3.1,9-4.9c2-1.3,3.8-2.8,5.5-4.5c1.9-2,2.6-4.2,1.9-6.9c-0.9-3.3-1.6-6.7-2.5-10c-11.5-45.2-22.9-90.4-34.4-135.7
		c-4.2-16.5-8.4-33.1-12.5-49.6c-0.2-0.6-0.4-1.3-0.5-1.9c-0.3-1.3,0.2-1.7,1.4-1.4c6.4,1.6,12.8,3.2,19.3,4.7
		c22.2,5.3,44.6,10,67.1,14c16,2.9,32,5.6,48.1,8c0.4,0.1,0.7,0.3,1.1,0.5c-1.4,3.3-2.8,6.6-4.2,9.8c-13.9,32.2-27.9,64.3-42.3,96.3
		c-16.8,37.3-34.2,74.3-53,110.6C595.5,555.1,595.3,555.8,595,556.6z"/>
	<path class="st2" d="M138.2,147.9c-0.1,0.2-0.1,1-0.5,1.7c-0.5,1-1.1,2.2-1.9,3c-3.1,3-3,2.6-1.8,7.3
		c17.9,71,35.7,142.1,53.6,213.2c17.4,69.3,34.9,138.5,52.3,207.7c9.6,38.1,19.2,76.2,28.8,114.3c15,59.6,30,119.3,45.1,178.9
		c1.7,6.8,3.4,13.6,5.1,20.4c0.3,1,0.5,2.1,0.7,3.1c0.2,0.8-0.1,1.3-0.8,1.6c-3.5,1.3-7.1,2.2-10.7,2.9c-0.7,0.1-1.3-0.2-1.5-1
		c-0.8-2.9-1.6-5.9-2.4-8.8c-15.6-59.4-31.2-118.7-46.7-178.1c-15.8-60.1-31.5-120.3-47.3-180.4c-12.5-47.7-25-95.4-37.5-143.1
		c-13.4-51-26.8-102.1-40.1-153.1c-6.1-23.4-12.3-46.8-18.4-70.2c-0.1-0.5-0.4-1-0.4-1.5c-0.3-2.3-1.2-3.6-3.7-3.7
		c-1.4-0.1-2.8-0.7-4.1-1.4c-1.6-1-2.3-2.4-2.2-4.3c0.1-1.1,0.4-2.1,0.9-3c0.8-1.4,1.8-2.6,3-3.6c7.1-6,15.3-8.7,24.7-7.6
		c1.8,0.2,3.3,0.9,4.5,2.2C137.9,144.9,138.4,146,138.2,147.9z"/>
	<path class="st1" d="M289.3,649.8c-0.1,0.2-0.2,0.5-0.4,0.7c-5.6,4.6-11.3,9.2-16.9,13.8c-0.4,0.3-0.9,0.4-1.7,0.8
		c-42.2-165.6-84.3-331-126.5-496.5c-0.1-0.3,0.1-0.7,0.1-1.1c4-0.3,12.7,0.3,21.3,1.4c0.2,0.9,0.4,1.8,0.7,2.7
		c9.2,35.9,18.3,71.7,27.6,107.6c9.3,36.2,18.7,72.5,28.1,108.7c11,42.5,22,85,32.9,127.5c11.1,42.9,22,85.8,33.1,128.7
		C288.1,646,288.3,648,289.3,649.8z"/>
	<path class="st2" d="M289.3,649.8c-1-1.8-1.2-3.8-1.7-5.7c-11-42.9-22-85.8-33.1-128.7c-11-42.5-22-85-32.9-127.5
		c-9.4-36.2-18.8-72.5-28.1-108.7c-9.2-35.9-18.4-71.7-27.6-107.6c-0.2-0.9-0.4-1.8-0.7-2.7c0.3,0,0.5-0.2,0.8-0.1
		c6.7,0.6,13.4,1.2,20.1,1.7c2.8,11.1,5.6,22.3,8.5,33.4c8.7,33.6,17.4,67.3,26.2,100.9c7.3,28.1,14.8,56.2,22.2,84.4
		c8.2,31.3,16.5,62.6,24.7,93.9c7.4,28.4,14.8,56.8,22.2,85.2c5.6,21.5,11.1,43,16.7,64.5c0.2,0.9,0.5,1.8,0.8,2.7c-2,1.7-4,3.4-6,5
		c-3.4,2.7-6.7,5.4-10.1,8.1C290.7,649,290.1,649.6,289.3,649.8z"/>
	<path class="st2" d="M731.6,474.2c-0.9,0.7-1.9,1.4-2.8,2.1c-19.6,13.4-39.3,26.6-59.3,39.2c-1.1,0.7-2.2,1.4-3.4,2
		c-0.4,0.2-0.7,0.2-1.1,0c-0.3-1.6,0.7-2.8,1.3-4.1c5.2-11.7,10.5-23.4,15.6-35.2c14.8-34.1,29.6-68.1,44.4-102.2
		c5.1-11.8,9.9-23.6,14.9-35.5c0.7,0,1.3-0.2,2-0.1c12.4,0.9,24.8,0,37.1-0.3c2,0,3.9-0.3,5.9,0c-0.4,1.3-0.8,2.5-1.3,3.8
		c-2.8,7.1-5.5,14.3-8.3,21.4c-13.5,34.2-27.6,68-42.2,101.7C733.3,469.4,732.1,471.7,731.6,474.2z"/>
	<path class="st2" d="M595,556.6c0.3-0.7,0.5-1.5,0.9-2.2c18.9-36.3,36.2-73.3,53-110.6c14.4-32,28.4-64.1,42.3-96.3
		c1.4-3.3,2.8-6.6,4.2-9.8c1.8,0.1,3.7,0.1,5.5,0.3c5.2,0.4,10.5,0.9,15.7,1.4c0.5,0,1,0.2,1.5,0.3c-0.9,2.3-1.8,4.7-2.8,7
		c-10.8,24.9-21.5,49.8-32.4,74.7c-12.4,28.5-25,56.9-38.1,85.2c-4.3,9.4-8.8,18.7-13.1,28c-0.5,1.1-1.6,2.2-1,3.7
		c0,0,0.1-0.1,0.1-0.1c-0.3,0.2-0.6,0.4-0.8,0.6c-0.5,0.4-1,0.8-1.6,1.1c-9.9,5.5-19.9,10.6-30.1,15.5
		C597.2,555.8,596.1,556.2,595,556.6z"/>
	<path class="st1" d="M630.7,538.1c-0.5-1.5,0.5-2.5,1-3.7c4.4-9.4,8.8-18.7,13.1-28c13.1-28.2,25.6-56.7,38.1-85.2
		c10.8-24.9,21.6-49.8,32.4-74.7c1-2.3,1.9-4.6,2.8-7c4.4-0.4,8.7,0.6,13,0.5c3.3,0,6.6,0.3,9.9,0.4c-5,11.8-9.8,23.7-14.9,35.5
		c-14.7,34.1-29.5,68.2-44.4,102.2c-5.1,11.8-10.4,23.4-15.6,35.2c-0.6,1.3-1.6,2.5-1.3,4.1c0,0,0-0.1,0-0.1c-0.7,0-0.8,0.5-0.8,1
		c-0.6,0.5-1.2,1-1.9,1.4c-9.8,6.1-19.7,12-29.7,17.6C632,537.8,631.5,538.2,630.7,538.1z"/>
	<path class="st1" d="M830.1,335.1c5.7-1.1,11.4-2.3,17.1-3.4c13.9-2.8,27.5-6.5,40.9-10.9c1.3-0.4,2.5-0.8,3.8-1.1
		c0.2-0.1,0.5,0.1,0.8,0.2c-0.1,1.1-0.9,1.9-1.5,2.7c-14.6,20.3-30.4,39.6-47.9,57.6c-13.6,13.9-27.4,27.6-42,40.4
		c-0.7,0.6-1.5,1.1-2.2,1.6c0.3-1,0.5-2,0.9-3c4.9-13.2,10-26.4,14.8-39.6C820,364.8,825.3,350,830.1,335.1z"/>
	<path class="st1" d="M731.6,474.2c0.5-2.5,1.7-4.7,2.7-7c14.6-33.7,28.7-67.6,42.2-101.7c2.8-7.1,5.6-14.3,8.3-21.4
		c0.5-1.2,0.8-2.5,1.3-3.8c0.9-0.6,2-0.6,3-0.7c6-0.2,12-0.8,18-1.5c0.4,0,0.8,0,1.2,0c-1.3,3.9-2.6,7.8-4,11.6
		c-11.7,32-24.2,63.8-37.2,95.3c-0.6,1.4-1.5,2.8-1.4,4.5c-0.8,0.7-1.5,1.5-2.3,2.1c-9.9,7.6-20,14.8-30.3,21.9
		C732.5,473.7,732,473.9,731.6,474.2z"/>
	<path class="st2" d="M765.6,449.4c-0.1-1.7,0.8-3,1.4-4.5c13-31.5,25.5-63.3,37.2-95.3c1.4-3.8,2.7-7.7,4-11.6c7.3-1,14.5-2,21.8-3
		c-4.8,14.9-10.1,29.7-15.4,44.4c-4.8,13.2-9.9,26.4-14.8,39.6c-0.4,1-0.6,2-0.9,3c-1,1.6-2.6,2.5-4,3.7
		c-8.9,7.7-18.1,15.1-27.3,22.3C767,448.7,766.3,449,765.6,449.4z"/>
	<path class="st1" d="M551.6,540.7c-1.2-1.7-1.3-3.3-1.7-4.8c-1.6-6.1-3.2-12.3-4.8-18.4c-0.2-0.6-0.3-1.3-0.4-1.9
		c0-0.5,0.1-1.1,0.7-1.2c0.5-0.2,1-0.3,1.5-0.5c9.1-2.4,18.3-4.2,27.6-4.9c6.6-0.5,13.2-0.5,19.6,1.4c2.2,0.6,4.3,1.3,6.2,2.6
		c1.6,1.1,1.7,2.6,0.2,3.9c-1.5,1.3-3.3,2.2-5.1,3c-5.2,2.1-10.5,4.3-15.8,6.3c-6,2.3-12.1,4.5-18,7.3
		C558,535.2,554.4,537.2,551.6,540.7z"/>
	<path class="st2" d="M664.2,518.5c0-0.5,0.1-1,0.8-1C665.3,518.3,664.7,518.3,664.2,518.5z"/>
	<path class="st1" d="M630,538.7c0.3-0.2,0.6-0.4,0.8-0.6C630.7,538.6,630.4,538.7,630,538.7z"/>
	<path class="st2" d="M500.6,365.2c1,3.9,2,7.7,3,11.5c3.8,14.2,7.5,28.4,11.3,42.6c0.2,0.9,0.5,1.8,0.7,2.7c0.3,1,1,1.5,2,1.6
		c3.8,0.5,7.6,1.1,11.4,1.6c0.5,0.1,1,0.2,1.6,0.2c1.4,0.1,2.1,0.9,2.4,2.2c0.6,2.7,1.4,5.4,2.1,8.1c1.6,6,3.1,12,4.7,18.1
		c0.2,0.8,0.4,1.5,0.5,2.3c0.1,0.6-0.4,1-1,0.9c-0.7,0-1.3-0.1-2-0.2c-8.5-1.5-17-2.5-25.6-3.2c-12.8-1-25.6-1.5-38.5-1.1
		c-1.9,0.1-3.7,0.2-5.5,0.2c-1.4,0-1.8-0.2-2.2-1.8c-2.1-7.2-4.2-14.5-6.2-21.7c-0.4-1.5-0.9-3-1.3-4.6c-0.6-2.2-0.3-2.5,2-2.5
		c2.6-0.1,5.3,0,7.9-0.2c2.3-0.2,4.7,0.6,6.9-0.6c0.1-2.3-0.9-4.4-1.5-6.5c-4.4-15.9-8.9-31.8-13.4-47.7c0-0.1-0.1-0.3-0.1-0.4
		c-1.2-3.6-0.3-3.6-4.9-3.5c-6.4,0.2-6.1-0.5-4.3,5.7c4.1,14.5,8.3,29,12.4,43.5c0.2,0.8,0.5,1.5,0.6,2.3c0.2,1-0.1,1.4-1.2,1.5
		c-0.4,0-0.8,0-1.2,0.1c-7.3,0.4-14.5,0.7-21.8,1.1c-2.1,0.1-4.2,0.4-6.3,0.6c-2.5,0.2-2.5-0.3-2.9-1.8c-0.2-0.6-0.5-1.2-0.7-1.9
		c-1.6,0-2.8,1-4,1.7c-12.3,6.6-25.1,11.9-38.5,15.8c-13.2,3.8-26.6,5.9-40.3,5.8c-14-0.2-27.6-2.6-40.5-8.4
		c-12.8-5.8-23.6-14.2-31.5-25.9c-7.2-10.7-10.9-22.5-11.1-35.5c-0.2-11.9,2.6-23.1,7.7-33.7c5.3-10.8,12-20.6,20.6-29
		c12.2-11.8,26.6-19,43.4-21.5c9-1.3,17.9-1.2,26.9-0.2c9.4,1.1,18.5,3,27.5,5.9c0.5,0.2,1,0.2,1.4,0.3c0.6-0.7,0.3-1.3,0.1-2
		c-0.8-2.8-1.7-5.6-2.5-8.4c-0.3-1-0.8-2-0.5-3.2c1.6-0.7,3.3-0.6,5-0.8c7.9-0.7,15.8-1.4,23.7-2c0.9-0.1,1.9,0,2.8-0.1
		c0.7,0,1.3,0.3,1.5,1c0.2,0.5,0.4,1,0.5,1.5c4.4,15.4,8.7,30.8,13.1,46.2c0.1,0.3,0.2,0.5,0.2,0.8c0.4,1.8,0.2,2.2-1.5,2.3
		c-3.2,0.2-6.3,0.4-9.5,0.6c-5.8,0.5-11.6,0.9-17.4,1.5c-1.5,0.2-2.8-0.2-4.2-0.9c-5.9-3.3-12.1-5.9-18.6-7.9
		c-9.2-2.9-18.5-4.4-28.2-3.6c-22.6,1.7-38.5,16.4-43.9,33.6c-5.7,18.2,2.2,39.4,20.2,48.7c6.5,3.4,13.5,5.4,20.7,6.6
		c12.8,2,25.3,0.6,37.6-3.1c5.4-1.6,10.4-3.9,14.9-7.3c7.8-5.8,12.6-13.5,13.9-23.2c0.1-0.4,0.1-0.8,0.1-1.2c0.2-2.8,0-3.3-3-2.8
		c-4.7,0.8-4.5-0.4-4.1,4.9c0.2,2.2,0.5,4.5,0.7,6.7c0.1,1.4-0.2,1.9-1.7,2.1c-2.1,0.3-4.2,0.5-6.3,0.7c-6,0.8-12.1,1.6-18.1,2.4
		c-1.4,0.2-1.8,0-2.3-1.5c-2.7-8.9-5.3-17.7-7.9-26.6c-1.4-4.8-2.9-9.6-4.3-14.5c-0.3-0.9-0.5-1.8-0.6-2.7c-0.1-0.6,0.3-1.1,0.9-1.2
		c1.7-0.3,3.4-0.6,5.1-0.8c12.8-1.7,25.7-3.3,38.6-4.4c16.9-1.4,33.8-2.3,50.7-2c19.9,0.4,39.6,2,59.1,6.2c8.5,1.8,16.9,4.2,25.2,7
		c2.1,0.7,3.3,1.7,3.8,4c3.5,14.4,7.2,28.7,10.8,43.1c0.1,0.4,0.2,0.8,0.3,1.2c0.1,0.8-0.4,1.2-1.2,0.9c-0.5-0.2-1-0.3-1.5-0.5
		c-6.7-2.5-13.5-4.6-20.5-6.3c-1.7-0.4-2.8-1.2-3.4-2.9c-1.3-3.5-2.8-6.8-4.2-10.3c-0.5-1.2-1.3-1.9-2.6-2.1c-5.3-0.9-10.6-2-16-2.9
		c-3.6-0.6-7.3-1.1-11-1.5C504.2,365,502.5,364.5,500.6,365.2z"/>
</g>
</svg>
